<svg width="800" height="800" viewBox="0 0 800 800" fill="none" xmlns="http://www.w3.org/2000/svg">
<path d="M571.78 282.7L571.5 282.58C571.34 282.52 571.18 282.46 571.04 282.32C570.811 282.074 570.641 281.778 570.544 281.455C570.447 281.133 570.425 280.792 570.48 280.46L585.94 185.94L658.44 258.46L583.04 290.54C582.83 290.624 582.606 290.665 582.38 290.66H582.08C581.98 290.6 581.88 290.52 581.68 290.32C578.874 287.196 575.518 284.613 571.78 282.7ZM676.94 276.94L754.46 354.46C770.56 370.58 778.62 378.62 781.56 387.94C782 389.32 782.36 390.7 782.64 392.12L597.38 313.66C597.28 313.619 597.18 313.579 597.08 313.54C596.34 313.24 595.48 312.9 595.48 312.14C595.48 311.38 596.36 311.02 597.1 310.72L597.34 310.62L676.94 276.94ZM779.48 417C775.48 424.52 767.68 432.32 754.48 445.54L667.08 532.92L554.04 509.38L553.44 509.26C552.44 509.1 551.38 508.92 551.38 508.02C550.951 503.357 549.566 498.832 547.312 494.727C545.059 490.622 541.984 487.025 538.28 484.16C537.82 483.7 537.94 482.98 538.08 482.32C538.08 482.22 538.08 482.12 538.12 482.04L559.38 351.52L559.46 351.08C559.58 350.08 559.76 348.92 560.66 348.92C565.216 348.353 569.614 346.885 573.597 344.602C577.58 342.319 581.069 339.265 583.86 335.62C584.04 335.42 584.16 335.2 584.4 335.08C585.04 334.78 585.8 335.08 586.46 335.36L779.48 417ZM646.98 553.02L503.26 696.74L527.86 545.54L527.9 545.34C527.92 545.14 527.96 544.94 528.02 544.76C528.22 544.28 528.74 544.08 529.24 543.88L529.48 543.78C534.866 541.482 539.63 537.938 543.38 533.44C543.86 532.88 544.44 532.34 545.18 532.24C545.372 532.209 545.568 532.209 545.76 532.24L646.96 553.04L646.98 553.02ZM472.84 727.16L456.64 743.36L277.54 484.52C277.475 484.425 277.409 484.332 277.34 484.24C277.06 483.86 276.76 483.48 276.82 483.04C276.84 482.72 277.04 482.44 277.26 482.2L277.46 481.94C278 481.14 278.46 480.34 278.96 479.48L279.36 478.78L279.42 478.72C279.7 478.24 279.96 477.78 280.44 477.52C280.86 477.32 281.44 477.4 281.9 477.5L480.32 518.42C480.875 518.506 481.398 518.734 481.84 519.08C482.1 519.34 482.16 519.62 482.22 519.94C483.604 525.177 486.18 530.023 489.746 534.099C493.313 538.176 497.774 541.372 502.78 543.44C503.34 543.72 503.1 544.34 502.84 545C502.71 545.289 502.61 545.591 502.54 545.9C500.04 561.1 478.6 691.86 472.84 727.16ZM439 760.98C427.06 772.8 420.02 779.06 412.06 781.58C404.212 784.062 395.788 784.062 387.94 781.58C378.62 778.62 370.56 770.58 354.46 754.46L174.6 574.6L221.58 501.74C221.8 501.38 222.02 501.06 222.38 500.8C222.88 500.44 223.6 500.6 224.2 500.8C234.983 504.053 246.561 503.467 256.96 499.14C257.5 498.94 258.04 498.8 258.46 499.18C258.67 499.372 258.858 499.586 259.02 499.82L439 760.98ZM157.26 557.26L116 516L197.48 481.24C197.688 481.149 197.913 481.102 198.14 481.1C198.82 481.1 199.22 481.78 199.58 482.4C200.399 483.66 201.266 484.887 202.18 486.08L202.44 486.4C202.68 486.74 202.52 487.08 202.28 487.4L157.26 557.26ZM97.74 497.74L45.54 445.54C36.66 436.66 30.22 430.22 25.74 424.68L184.46 457.6C184.659 457.637 184.859 457.67 185.06 457.7C186.04 457.86 187.12 458.04 187.12 458.96C187.12 459.96 185.94 460.42 184.94 460.8L184.48 461L97.74 497.74ZM16.62 397.84C16.8009 394.477 17.4057 391.151 18.42 387.94C21.38 378.62 29.42 370.58 45.54 354.46L112.34 287.66C143.097 332.298 173.937 376.878 204.86 421.4C205.4 422.12 206 422.92 205.38 423.52C202.46 426.74 199.54 430.26 197.48 434.08C197.257 434.571 196.913 434.998 196.48 435.32C196.22 435.48 195.94 435.42 195.64 435.36H195.6L16.62 397.84ZM130.22 269.78L220.04 179.96C228.48 183.66 259.2 196.64 286.68 208.24C307.48 217.04 326.44 225.04 332.4 227.64C333 227.88 333.54 228.12 333.8 228.72C333.96 229.08 333.88 229.54 333.8 229.92C332.378 236.404 332.59 243.139 334.416 249.52C336.241 255.902 339.624 261.73 344.26 266.48C344.86 267.08 344.26 267.94 343.74 268.68L343.46 269.1L252.26 410.36C252.02 410.76 251.8 411.1 251.4 411.36C250.92 411.66 250.24 411.52 249.68 411.38C246.133 410.451 242.486 409.954 238.82 409.9C235.54 409.9 231.98 410.5 228.38 411.16C227.98 411.22 227.6 411.3 227.28 411.06C226.927 410.771 226.623 410.427 226.38 410.04L130.22 269.78ZM238.18 161.82L354.46 45.54C370.56 29.44 378.62 21.38 387.94 18.44C395.788 15.9582 404.212 15.9582 412.06 18.44C421.38 21.38 429.44 29.44 445.54 45.54L470.74 70.74L388.04 198.82C387.835 199.193 387.556 199.52 387.22 199.78C386.72 200.12 386.02 199.98 385.42 199.78C378.9 197.801 371.996 197.441 365.305 198.73C358.614 200.02 352.338 202.92 347.02 207.18C346.48 207.74 345.68 207.42 345 207.12C334.2 202.42 250.2 166.92 238.18 161.82ZM488.3 88.3L564.66 164.66L546.26 278.62V278.92C546.244 279.18 546.19 279.436 546.1 279.68C545.9 280.08 545.5 280.16 545.1 280.28C541.166 281.472 537.461 283.317 534.14 285.74C533.997 285.842 533.863 285.955 533.74 286.08C533.52 286.32 533.3 286.54 532.94 286.58C532.647 286.589 532.355 286.541 532.08 286.44L415.72 237L415.5 236.9C414.76 236.6 413.88 236.24 413.88 235.48C413.196 228.996 411.078 222.745 407.68 217.18C407.12 216.26 406.5 215.3 406.98 214.36L488.3 88.3ZM409.66 260.42L518.74 306.62C519.34 306.9 520 307.16 520.26 307.78C520.364 308.153 520.364 308.547 520.26 308.92C519.94 310.52 519.66 312.34 519.66 314.18V317.24C519.66 318 518.88 318.32 518.16 318.62L517.94 318.7C500.66 326.08 275.34 422.16 275 422.16C274.66 422.16 274.3 422.16 273.96 421.82C273.36 421.22 273.96 420.38 274.5 419.62C274.595 419.488 274.689 419.355 274.78 419.22L364.42 280.42L364.58 280.18C365.1 279.34 365.7 278.4 366.66 278.4L367.56 278.54C369.6 278.82 371.4 279.08 373.22 279.08C386.82 279.08 399.42 272.46 407.02 261.14C407.201 260.838 407.431 260.567 407.7 260.34C408.24 259.94 409.04 260.14 409.66 260.42ZM284.74 444.12L530.34 339.38C530.34 339.38 530.7 339.38 531.04 339.72C532.38 341.06 533.52 341.96 534.62 342.8L535.16 343.14C535.66 343.42 536.16 343.74 536.2 344.26C536.2 344.46 536.2 344.58 536.16 344.76L515.12 474L515.04 474.52C514.9 475.52 514.76 476.66 513.82 476.66C508.211 477.039 502.778 478.779 497.993 481.731C493.208 484.683 489.215 488.757 486.36 493.6L486.26 493.76C485.98 494.22 485.72 494.66 485.26 494.9C484.84 495.1 484.3 495.02 483.86 494.92L288 454.52C287.8 454.48 284.96 444.14 284.74 444.12Z" fill="url(#paint0_radial_27_26)"/>
<defs>
<radialGradient id="paint0_radial_27_26" cx="0" cy="0" r="1" gradientUnits="userSpaceOnUse" gradientTransform="translate(-9.09926 389.191) rotate(90) scale(76601.9 88439.8)">
<stop/>
<stop offset="1"/>
</radialGradient>
</defs>
</svg>
