<svg width="800" height="800" viewBox="0 0 800 800" fill="none" xmlns="http://www.w3.org/2000/svg">
<path d="M595.675 206.075C616.957 211.026 636.295 222.17 651.25 238.1C659.488 246.722 666.641 256.318 672.55 266.675C672.825 267.8 634.2 293.75 610.775 308.225C609.925 308.8 606.55 305.125 602.725 299.475C598.446 292.119 592.372 285.968 585.071 281.596C577.77 277.225 569.48 274.774 560.975 274.475C534.05 272.625 516.7 286.725 516.825 310.3C516.592 316.092 517.913 321.841 520.65 326.95C526.575 339.2 537.575 346.55 572.125 361.525C635.725 388.9 663.025 406.95 679.875 432.6C689.399 448.807 695.265 466.9 697.062 485.612C698.858 504.324 696.542 523.202 690.275 540.925C681.662 560.361 668.004 577.137 650.718 589.512C633.432 601.887 613.15 609.41 591.975 611.3C569.467 613.882 546.725 613.647 524.275 610.6C489.887 604.95 458.21 588.445 433.875 563.5C424.68 553.146 416.896 541.621 410.725 529.225C413.32 527.295 416.052 525.557 418.9 524.025C422.85 521.775 437.8 513.175 451.9 505L477.5 490L482.85 497.8C491.861 510.686 503.331 521.663 516.6 530.1C530.001 537.451 545.18 540.934 560.445 540.161C575.71 539.389 590.46 534.391 603.05 525.725C609.544 519.395 613.604 510.982 614.518 501.959C615.433 492.936 613.143 483.879 608.05 476.375C601.15 466.5 587.05 458.2 546.975 440.825C515.551 430.229 486.93 412.666 463.25 389.45C451.973 376.599 443.645 361.436 438.85 345.025C435.304 326.33 434.781 307.186 437.3 288.325C442.004 266.621 453.268 246.888 469.563 231.8C485.859 216.712 506.399 206.998 528.4 203.975C550.803 201.298 573.482 202.006 595.675 206.075ZM387.1 243.15L387.375 279.5H271.625V608.2H190V279.575H74.25V243.875C73.9421 231.649 74.2759 219.416 75.25 207.225C75.675 206.65 146.05 206.375 231.375 206.525L386.65 206.95L387.1 243.15Z" fill="black"/>
</svg>
